# AST/ASF file generated using VICON BodyLanguage
# -----------------------------------------------
:version 1.10
:name VICON
:units
  mass 1.0
  length 0.45
  angle deg
:documentation
   .ast/.asf automatically generated from VICON data using
   VICON BodyBuilder and BodyLanguage model FoxedUp or BRILLIANT.MOD
:root
   order TX TY TZ RX RY RZ
   axis XYZ
   position 0 0 0  
   orientation 0 0 0 
:bonedata
  begin
     id 1 
     name lhipjoint
     direction 0.630305 -0.712092 0.309259 
     length 2.29033 
     axis 0 0 0  XYZ
  end
  begin
     id 2 
     name lfemur
     direction 0.34202 -0.939693 0  
     length 6.43538  
     axis 0 0 20  XYZ
    dof rx ry rz
    limits (-160.0 20.0)
           (-70.0 70.0)
           (-60.0 70.0)
  end
  begin
     id 3 
     name ltibia
     direction 0.34202 -0.939693 0   
     length 7.43097   
     axis 0 0 20   XYZ
    dof rx
    limits (-10.0 170.0)
  end
  begin
     id 4 
     name lfoot
     direction 0.0334653 -0.0919451 0.995202   
     length 1.78438   
     axis -90 7.62852e-016 20   XYZ
    dof rx rz
    limits (-45.0 90.0)
           (-70.0 20.0)
  end
  begin
     id 5 
     name ltoes
     direction 1.53535e-011 -4.21933e-011 1   
     length 0.90832   
     axis -90 7.62852e-016 20   XYZ
    dof rx
    limits (-90.0 20.0)
  end
  begin
     id 6 
     name rhipjoint
     direction -0.682059 -0.67077 0.291312   
     length 2.43143  
     axis 0 0 0  XYZ 
  end
  begin
     id 7 
     name rfemur
     direction -0.34202 -0.939693 0   
     length 6.63488   
     axis 0 0 -20   XYZ
    dof rx ry rz
    limits (-160.0 20.0)
           (-70.0 70.0)
           (-70.0 60.0)
  end
  begin
     id 8 
     name rtibia
     direction -0.34202 -0.939693 0   
     length 6.86532   
     axis 0 0 -20   XYZ
    dof rx
    limits (-10.0 170.0)
 end
 begin
     id 9 
     name rfoot
     direction -0.105199 -0.289033 0.951521   
     length 1.77126  
     axis -90 -7.62852e-016 -20   XYZ
    dof rx rz
    limits (-45.0 90.0)
           (-20.0 70.0)
  end
  begin
     id 10 
     name rtoes
     direction -1.53551e-011 -4.21978e-011 1   
     length 0.889273   
     axis -90 -7.62852e-016 -20   XYZ
    dof rx
    limits (-90.0 20.0)
  end
  begin
     id 11 
     name lowerback
     direction -0.0514305 0.998089 0.034245   
     length 2.02077   
     axis 0 0 0   XYZ
    dof rx ry rz
    limits (-20.0 45.0)
           (-30.0 30.0)
           (-30.0 30.0)
  end
  begin
     id 12 
     name upperback
     direction 0.0203189 0.999449 -0.0262315   
     length 2.01413   
     axis 0 0 0   XYZ
    dof rx ry rz
    limits (-20.0 45.0)
           (-30.0 30.0)
           (-30.0 30.0)
  end
  begin
     id 13 
     name thorax
     direction 0.0452736 0.998142 -0.0407729   
     length 2.02986   
     axis 0 0 0   XYZ
    dof rx ry rz
    limits (-20.0 45.0)
           (-30.0 30.0)
           (-30.0 30.0)
  end
  begin
     id 14 
     name lowerneck
     direction -0.0180464 0.999645 -0.0195774   
     length 1.59034   
     axis 0 0 0   XYZ
    dof rx ry rz
    limits (-20.0 45.0)
           (-30.0 30.0)
           (-30.0 30.0)
  end
  begin
     id 15 
     name upperneck
     direction 0.0732272 0.979935 -0.18538   
     length 1.57486   
     axis 0 0 0   XYZ
    dof rx ry rz
    limits (-20.0 45.0)
           (-30.0 30.0)
           (-30.0 30.0)
  end
  begin
     id 16
     name head
     direction 0.0252963 0.997909 -0.059472  
     length 1.60334  
     axis 0 0 0   XYZ
    dof rx ry rz
    limits (-20.0 45.0)
           (-30.0 30.0)
           (-30.0 30.0)
  end
  begin
     id 17 
     name lclavicle
     direction 0.943819 0.330449 0.00315172  
     length 3.50322  
     axis 0 0 0   XYZ
    dof ry rz
    limits (-20.0 10.0)
           (0.0 20.0)
  end
  begin
     id 18 
     name lhumerus
     direction 1 -4.48949e-011 2.22502e-028   
     length 4.63208   
     axis 180 -30 -90   XYZ
    dof rx ry rz
    limits (-60.0 90.0)
           (-90.0 90.0)
           (-90.0 90.0)
  end
  begin
     id 19
     name lradius
     direction 1 -4.48967e-011 -4.10197e-027   
     length 3.41924   
     axis 180 -30 -90   XYZ
    dof rx
    limits (-10.0 170.0)
  end
  begin
     id 20
     name lwrist
     direction 1 -4.48987e-011 -1.24264e-027   
     length 1.70962   
     axis 2.50585e-015 90 90   XYZ
    dof ry
    limits (-180.0 0.0)
 end
  begin
     id 21 
     name lhand
     direction 1 -4.48983e-011 -2.48528e-027   
     length 0.62537   
     axis 1.58582e-015 90 90   XYZ
    dof rx rz
    limits (-90.0 90.0)
           (-45.0 45.0)
  end
  begin
     id 22 
     name lfingers
     direction 1 -4.48896e-011 -4.97056e-027   
     length 0.50419   
     axis 3.17164e-015 90 90   XYZ
    dof rx
    limits (0.0 90.0)
  end
  begin
     id 23
     name lthumb
     direction 0.707107 -6.34803e-011 0.707107   
     length 0.723919   
     axis -90 45 2.85299e-015   XYZ
    dof rx rz
    limits (-45.0 45.0)
           (-45.0 45.0)
  end
  begin
     id 24 
     name rclavicle
     direction -0.964499 0.260664 -0.0423695   
     length 3.91997  
     axis 0 0 0   XYZ 
    dof ry rz
    limits (-10.0 20.0)
           (-20.0 0.0)
  end
  begin
     id 25 
     name rhumerus
     direction -1 -4.48957e-011 -1.98656e-027  
     length 4.4064   
     axis 180 30 90   XYZ
    dof rx ry rz
    limits (-90.0 60.0)
           (-90.0 90.0)
           (-90.0 90.0)
  end
  begin
     id 26 
     name rradius
     direction -1 -4.48968e-011 1.96972e-027   
     length 3.44675   
     axis 180 30 90   XYZ
    dof rx
    limits (-10.0 170.0)
  end
  begin
     id 27 
     name rwrist
     direction -1 -4.48974e-011 -1.24264e-027   
     length 1.72338   
     axis 2.50585e-015 -90 -90   XYZ
    dof ry
    limits (-180.0 0.0)
  end
  begin
     id 28
     name rhand
     direction -1 -4.48901e-011 -2.48528e-027   
     length 0.513674   
     axis 1.58582e-015 -90 -90   XYZ
    dof rx rz
    limits (-90.0 90.0)
           (-45.0 45.0)
  end
  begin
     id 29
     name rfingers
     direction -1 -4.48946e-011 -4.97056e-027   
     length 0.414137   
     axis 3.17164e-015 -90 -90   XYZ
    dof rx
    limits (0.0 90.0)
  end
  begin
     id 30
     name rthumb
     direction -0.707107 -6.34859e-011 0.707107   
     length 0.59462   
     axis -90 -45 -2.85299e-015   XYZ
    dof rx rz
    limits (-45.0 45.0)
           (-45.0 45.0)
  end
:hierarchy
  begin
    root lhipjoint rhipjoint lowerback
    lhipjoint lfemur
    lfemur ltibia
    ltibia lfoot
    lfoot ltoes
    rhipjoint rfemur
    rfemur rtibia
    rtibia rfoot
    rfoot rtoes
    lowerback upperback
    upperback thorax
    thorax lowerneck lclavicle rclavicle
    lowerneck upperneck
    upperneck head
    lclavicle lhumerus
    lhumerus lradius
    lradius lwrist
    lwrist lhand lthumb
    lhand lfingers
    rclavicle rhumerus
    rhumerus rradius
    rradius rwrist
    rwrist rhand rthumb
    rhand rfingers
  end

#!OML:ASF E:\inclinewalkrobotboard\Project 1\Capture day 1\Session 1\subject1.ASF
:FULLY-SPECIFIED
:DEGREES
232
root 9.51905 16.5544 -6.73294 -162.896 -6.2936 174.34
lowerback 3.80152 -7.66165 -9.12921
upperback 2.5968 -10.6529 1.45346
thorax 2.53529 -5.60957 6.52687
lowerneck -9.39311 1.84772 -2.52282
upperneck 20.9115 3.18432 3.193
head 7.90317 1.92453 1.8218
rclavicle 6.48038e-014 -2.78299e-015
rhumerus -101.61 -23.4691 41.926
rradius 11.8595
rwrist 111.877
rhand -13.6416 -33.8655
rfingers 7.12502
rthumb 12.4747 -63.4732
lclavicle 6.48038e-014 -2.78299e-015
lhumerus 16.965 -26.0291 83.1097
lradius 36.4855
lwrist -13.6406
lhand -34.8121 -25.4015
lfingers 7.12502
lthumb -7.96345 4.42852
rfemur -41.9937 6.93665 -0.115201
rtibia 32.4072
rfoot -11.0683 -14.2963
rtoes -26.6065
lfemur -12.1601 -5.00088 -17.4273
ltibia 39.6941
lfoot -17.188 0.993992
ltoes -73.3693
233
root 9.57964 16.5659 -7.05415 -162.528 -5.8745 174.304
lowerback 3.58984 -7.9021 -8.5946
upperback 2.38763 -10.9303 1.8221
thorax 2.45659 -5.72527 6.59551
lowerneck -8.61749 2.2627 -2.83523
upperneck 20.1809 3.80316 2.97637
head 7.50128 2.16405 1.82313
rclavicle 7.95139e-015 -1.43125e-014
rhumerus -100.977 -23.087 42.165
rradius 11.8047
rwrist 111.925
rhand -13.5767 -33.5942
rfingers 7.12502
rthumb 12.5372 -63.1981
lclavicle 7.95139e-015 -1.43125e-014
lhumerus 17.0425 -25.9908 83.2749
lradius 35.9375
lwrist -14.374
lhand -34.1068 -26.3303
lfingers 7.12502
lthumb -7.28267 3.52439
rfemur -42.202 7.37774 0.487359
rtibia 34.3615
rfoot -13.4027 -13.5762
rtoes -27.632
lfemur -11.8524 -5.18983 -17.4635
ltibia 39.994
lfoot -16.9351 1.63261
ltoes -73.4927
234
root 9.62531 16.5601 -7.35529 -161.331 -5.36569 174.229
lowerback 2.65931 -8.21423 -7.91999
upperback 1.9607 -11.23 2.15787
thorax 2.51716 -5.8379 6.45778
lowerneck -8.43601 2.59399 -2.64984
upperneck 19.9393 4.29638 2.51065
head 7.39066 2.36319 1.67181
rclavicle 1.02374e-014 -1.15295e-014
rhumerus -100.685 -23.0937 42.9127
rradius 11.7324
rwrist 112.868
rhand -13.144 -33.6736
rfingers 7.12502
rthumb 12.9544 -63.2514
lclavicle 1.02374e-014 -1.15295e-014
lhumerus 17.1838 -25.5077 83.2982
lradius 35.1335
lwrist -15.5789
lhand -33.3642 -27.2203
lfingers 7.12502
lthumb -6.56584 2.65789
rfemur -43.0974 7.63544 0.684405
rtibia 35.524
rfoot -15.0428 -13.1751
rtoes -27.699
lfemur -12.6149 -5.3459 -17.5839
ltibia 40.1887
lfoot -17.7535 2.63569
ltoes -73.3535
235
root 9.67652 16.5975 -7.65865 -161.724 -4.78116 174.355
lowerback 3.49581 -8.31296 -7.54793
upperback 2.01565 -11.4317 2.34
thorax 2.11012 -5.92958 6.57207
lowerneck -8.292 2.95046 -2.39962
upperneck 19.6992 4.78664 2.17286
head 7.28878 2.57755 1.55176
rclavicle 1.65985e-014 -4.25399e-014
rhumerus -101.285 -23.4473 45.4172
rradius 11.8332
rwrist 115.724
rhand -12.7175 -33.3855
rfingers 7.12502
rthumb 13.3655 -62.9368
lclavicle 1.65985e-014 -4.25399e-014
lhumerus 16.8419 -24.6614 83.3164
lradius 34.6908
lwrist -16.5094
lhand -33.1006 -27.1488
lfingers 7.12502
lthumb -6.31134 2.73714
rfemur -42.0393 8.75848 1.45589
rtibia 36.1829
rfoot -16.188 -12.9511
rtoes -27.3457
lfemur -11.1021 -5.47769 -17.6801
ltibia 39.2415
lfoot -19.5208 3.80984
ltoes -73.2233
236
root 9.71293 16.6205 -7.9625 -161.589 -4.05097 174.483
lowerback 3.46856 -8.38749 -7.02823
upperback 2.06466 -11.5191 2.40537
thorax 2.10088 -5.96758 6.35403
lowerneck -8.10028 3.27569 -2.00812
upperneck 19.4169 5.20571 1.85671
head 7.17256 2.77117 1.40744
rclavicle 7.93151e-014 -2.82274e-014
rhumerus -101.321 -24.3332 45.5707
rradius 11.926
rwrist 116.133
rhand -12.1004 -33.4298
rfingers 7.12502
rthumb 13.9603 -62.9411
lclavicle 7.93151e-014 -2.82274e-014
lhumerus 15.9357 -23.8638 83.5661
lradius 34.5949
lwrist -17.2714
lhand -34.1464 -25.7409
lfingers 7.12502
lthumb -7.32085 4.11247
rfemur -41.1049 9.3231 2.11467
rtibia 35.9282
rfoot -16.4971 -12.5636
rtoes -27.205
lfemur -10.2389 -5.49566 -17.8354
ltibia 37.5309
lfoot -20.2159 5.64394
ltoes -72.8211
237
root 9.73429 16.6447 -8.26112 -161.578 -3.23213 174.267
lowerback 3.38947 -8.36416 -6.73644
upperback 2.21163 -11.4797 2.17307
thorax 2.18338 -5.94788 5.93997
lowerneck -7.56246 3.49059 -1.53522
upperneck 18.9093 5.43464 1.63695
head 6.92794 2.89183 1.25149
rclavicle -6.39093e-014 7.95139e-015
rhumerus -100.634 -25.4039 43.443
rradius 11.83
rwrist 114.431
rhand -12.2284 -33.6703
rfingers 7.12502
rthumb 13.8369 -63.19
lclavicle -6.39093e-014 7.95139e-015
lhumerus 15.1334 -23.4903 83.3667
lradius 33.8252
lwrist -16.5762
lhand -35.0731 -26.2251
lfingers 7.12502
lthumb -8.21534 3.59515
rfemur -39.9907 9.5866 2.35657
rtibia 35.6334
rfoot -17.0316 -11.8862
rtoes -27.4967
lfemur -9.6652 -5.38082 -18.5056
ltibia 35.8405
lfoot -20.6487 7.80343
ltoes -72.214
238
root 9.7723 16.6488 -8.49991 -160.141 -2.45104 174.619
lowerback 2.22536 -8.39582 -6.06488
upperback 1.92401 -11.4071 2.23992
thorax 2.39763 -5.88134 5.49694
lowerneck -6.76934 3.63949 -1.29353
upperneck 18.2432 5.57585 1.57795
head 6.58052 2.97038 1.16753
rclavicle -5.36719e-015 1.59028e-014
rhumerus -98.5031 -26.9124 38.3857
rradius 11.4622
rwrist 110.046
rhand -12.526 -33.9384
rfingers 7.12502
rthumb 13.5501 -63.4775
lclavicle -5.36719e-015 1.59028e-014
lhumerus 13.9732 -22.53 83.2087
lradius 33.1422
lwrist -16.9409
lhand -35.1686 -25.7266
lfingers 7.12502
lthumb -8.30748 4.09007
rfemur -41.2371 9.72154 2.70984
rtibia 36.0686
rfoot -17.9387 -11.3675
rtoes -27.8893
lfemur -11.8571 -5.16501 -17.9313
ltibia 36.6127
lfoot -23.2382 9.07969
ltoes -72.1426
239
root 9.81617 16.7072 -8.76175 -161.148 -1.58943 174.758
lowerback 3.48628 -8.18298 -6.22364
upperback 2.39241 -11.2389 2.02716
thorax 2.14929 -5.82341 5.53495
lowerneck -6.08889 3.76191 -1.91749
upperneck 17.5746 5.66752 2.23581
head 6.20762 3.02353 1.44856
rclavicle -5.76476e-014 1.11319e-014
rhumerus -95.5053 -28.7176 31.821
rradius 11.0694
rwrist 104.837
rhand -13.1641 -33.9026
rfingers 7.12502
rthumb 12.935 -63.4816
lclavicle -5.76476e-014 1.11319e-014
lhumerus 13.0555 -21.8421 82.3734
lradius 32.0982
lwrist -16.0696
lhand -34.5774 -25.945
lfingers 7.12502
lthumb -7.73689 3.89348
rfemur -38.9258 10.6227 3.60456
rtibia 35.3656
rfoot -18.9842 -10.5159
rtoes -28.6524
lfemur -10.9019 -4.75054 -17.8288
ltibia 35.7935
lfoot -24.5576 10.2418
ltoes -72.0342
240
root 9.8653 16.7214 -9.00255 -160.442 -0.644049 175.162
lowerback 2.82368 -8.0408 -6.06207
upperback 2.44339 -11.0002 2.00368
thorax 2.49918 -5.70789 5.32467
lowerneck -6.42473 3.8908 -1.52335
upperneck 17.8223 5.85731 1.92951
head 6.36289 3.11351 1.3161
rclavicle -1.74931e-014 -9.93923e-015
rhumerus -89.6664 -30.36 20.1569
rradius 10.7862
rwrist 94.4299
rhand -12.6783 -34.1588
rfingers 7.12502
rthumb 13.4033 -63.7076
lclavicle -1.74931e-014 -9.93923e-015
lhumerus 11.6931 -20.5037 82.044
lradius 30.965
lwrist -16.9912
lhand -34.2028 -25.5366
lfingers 7.12502
lthumb -7.37535 4.31485
rfemur -39.0482 10.9 4.3145
rtibia 35.407
rfoot -19.8537 -9.62694
rtoes -28.9458
lfemur -12.4616 -3.97762 -17.1152
ltibia 35.7546
lfoot -25.3705 11.2466
ltoes -71.8875
241
root 9.91694 16.7335 -9.23488 -160.065 0.282816 175.461
lowerback 2.49675 -7.79403 -6.14934
upperback 2.52472 -10.6506 1.86517
thorax 2.70489 -5.53977 5.18775
lowerneck -5.82303 3.92934 -1.87311
upperneck 17.4562 5.88085 2.29258
head 6.1188 3.13486 1.46288
rclavicle 5.60573e-014 -1.11319e-014
rhumerus -81.4784 -30.1254 4.55728
rradius 10.8294
rwrist 80.8681
rhand -12.4497 -33.8998
rfingers 7.12502
rthumb 13.6236 -63.434
lclavicle 5.60573e-014 -1.11319e-014
lhumerus 9.91841 -19.1274 81.8966
lradius 29.7314
lwrist -18.2512
lhand -34.6793 -24.6858
lfingers 7.12502
lthumb -7.8352 5.14906
rfemur -38.8627 11.2426 4.92747
rtibia 35.4859
rfoot -20.5283 -8.88324
rtoes -28.8421
lfemur -13.9612 -3.36893 -16.3645
ltibia 35.9028
lfoot -24.9776 11.9176
ltoes -71.3905
242
root 9.96551 16.7532 -9.4638 -160.218 0.930434 175.828
lowerback 2.72772 -7.59935 -6.20393
upperback 2.75525 -10.1507 1.6525
thorax 2.72703 -5.2078 5.03869
lowerneck -6.30633 3.75248 -1.283
upperneck 18.2684 5.67726 2.0163
head 6.4919 3.06413 1.30031
rclavicle 9.28324e-014 -4.05521e-014
rhumerus -73.2857 -27.5226 -11.9898
rradius 11.6879
rwrist 65.8633
rhand -12.3255 -33.7302
rfingers 7.12502
rthumb 13.7433 -63.2563
lclavicle 9.28324e-014 -4.05521e-014
lhumerus 8.05163 -17.769 81.6189
lradius 28.7737
lwrist -19.8519
lhand -35.1851 -24.0284
lfingers 7.12502
lthumb -8.32342 5.78758
rfemur -37.9194 11.7808 5.73787
rtibia 35.3876
rfoot -21.0684 -8.51777
rtoes -28.422
lfemur -15.1696 -3.26505 -15.3537
ltibia 36.2203
lfoot -24.236 12.3976
ltoes -70.8504
243
root 10.0073 16.7693 -9.68497 -160.495 1.59793 176.049
lowerback 3.14726 -7.22331 -6.5178
upperback 3.00692 -9.64753 1.42666
thorax 2.70201 -4.95601 5.03534
lowerneck -5.98766 3.72295 -1.52638
upperneck 17.85 5.59739 2.28373
head 6.28857 3.02839 1.3999
rclavicle 9.93923e-015 -3.10104e-014
rhumerus -66.7437 -23.6214 -26.0792
rradius 13.4404
rwrist 52.5352
rhand -12.4955 -34.0194
rfingers 7.12502
rthumb 13.5795 -63.5565
lclavicle 9.93923e-015 -3.10104e-014
lhumerus 6.01517 -15.7856 81.4488
lradius 27.9882
lwrist -21.7685
lhand -35.1236 -23.9125
lfingers 7.12502
lthumb -8.2641 5.90586
rfemur -36.8128 12.3815 6.33577
rtibia 35.2053
rfoot -21.6219 -8.14513
rtoes -25.74
lfemur -16.5922 -3.42339 -14.4333
ltibia 36.8502
lfoot -26.1455 13.3051
ltoes -71.792
244
root 10.0287 16.7739 -9.93439 -160.728 1.96113 176.244
lowerback 3.10571 -6.93623 -6.47956
upperback 3.25984 -9.23453 1.22985
thorax 2.89236 -4.74926 4.80439
lowerneck -6.10848 3.70059 -1.78277
upperneck 18.0559 5.6369 2.18287
head 6.37046 3.02721 1.42126
rclavicle 4.13472e-014 -1.66979e-014
rhumerus -62.1049 -19.7328 -36.159
rradius 15.6292
rwrist 42.5314
rhand -12.9898 -34.5299
rfingers 7.12502
rthumb 13.103 -64.0983
lclavicle 4.13472e-014 -1.66979e-014
lhumerus 3.79782 -13.5426 81.4204
lradius 27.324
lwrist -23.485
lhand -35.0348 -23.3031
lfingers 7.12502
lthumb -8.17833 6.51866
rfemur -35.1151 12.5044 7.03477
rtibia 34.3996
rfoot -22.3982 -7.25197
rtoes -22.5712
lfemur -17.9295 -4.0415 -13.5853
ltibia 37.226
lfoot -26.1001 13.4974
ltoes -71.9053
